<svg width="36" height="24" viewBox="0 0 36 24" fill="none" xmlns="http://www.w3.org/2000/svg">
<path d="M16.4595 23.7932C16.409 23.9504 16.2422 24.0365 16.087 23.9853C15.9316 23.9341 15.8468 23.7648 15.8975 23.6073L23.0715 1.26548C23.1217 1.1082 23.2885 1.02218 23.4439 1.07338C23.5994 1.12458 23.6837 1.29385 23.6328 1.45135L16.4595 23.7932Z" fill="#E4E4E4"/>
<path d="M33.7737 12.1866C33.5665 12.8226 33.3592 13.4587 33.1519 14.0948C31.093 14.1549 29.3578 13.1974 27.5538 12.1951L27.527 12.1802C25.7996 11.2205 24.0063 10.2241 21.8773 10.23C22.6545 7.84558 23.4317 5.46075 24.2081 3.07615C26.2673 3.01603 28.0024 3.9735 29.8064 4.9758L29.8333 4.99079C31.5606 5.95054 33.3538 6.94691 35.4827 6.94096C34.9134 8.68925 34.3436 10.4378 33.7737 12.1866Z" stroke="#E4E4E4" stroke-width="0.5"/>
<path d="M19.1382 23.0219C19.1876 23.1812 19.3653 23.2742 19.5373 23.2297C19.708 23.185 19.8064 23.0195 19.7578 22.86L12.8051 0.231142C12.7562 0.0718441 12.5777 -0.0211727 12.4065 0.023411C12.2355 0.0680034 12.1366 0.233556 12.1854 0.393078L19.1382 23.0219Z" fill="#E4E4E4"/>
<path d="M0.411453 5.72455L0.347758 5.5291C2.47671 5.53502 4.27007 4.53861 5.99745 3.57884L6.02428 3.56394C7.82829 2.56163 9.56343 1.60416 11.6224 1.66429C11.8501 2.36333 12.0778 3.06239 12.3055 3.76146C12.8546 5.44705 13.4037 7.13269 13.9531 8.81811C11.8238 8.81218 10.0304 9.80867 8.30302 10.7685L8.27637 10.7833C6.47243 11.7856 4.73745 12.743 2.67854 12.6829C1.92307 10.363 1.16718 8.04353 0.411453 5.72455Z" stroke="#E4E4E4" stroke-width="0.5"/>
<path d="M30.1032 8.47078C30.1032 9.30734 29.425 9.98551 28.5885 9.98551C27.7519 9.98551 27.0737 9.30734 27.0737 8.47078C27.0737 7.63422 27.7519 6.95605 28.5885 6.95605C29.425 6.95605 30.1032 7.63422 30.1032 8.47078Z" stroke="#E4E4E4" stroke-width="0.5"/>
<path d="M4.05884 4.58838L6.70593 11.8238" stroke="#E4E4E4" stroke-width="0.5"/>
<path d="M7.76489 2.4707L10.412 9.70608" stroke="#E4E4E4" stroke-width="0.5"/>
</svg>
