<svg width="27" height="27" viewBox="0 0 27 27" fill="none" xmlns="http://www.w3.org/2000/svg">
<path d="M21.8 4H5.20004C4.00008 4 3 4.91406 3 6.06253V16.9375C3 18.0624 3.975 19 5.20004 19H21.8C22.9999 19 24 18.0859 24 16.9375L23.9998 6.06253C23.9998 4.91406 23.0248 4 21.8 4H21.8ZM21.8 4.93758C22.0999 4.93758 22.4 5.0548 22.6001 5.24231L14.5001 11.8282C13.9251 12.2969 13.075 12.2969 12.5 11.8282L4.40008 5.21888C4.6001 5.03136 4.90004 4.93768 5.20017 4.93768L21.8 4.93758ZM5.20004 18.0625C4.94996 18.0625 4.72499 17.9922 4.52499 17.875L10.5 13.0234C10.7 12.8593 10.7249 12.5547 10.55 12.3672C10.3749 12.1797 10.0501 12.1563 9.85002 12.3203L4.00004 17.0546V16.9374V6.15622L11.85 12.5312C12.3251 12.9296 12.9249 13.1171 13.5001 13.1171C14.075 13.1171 14.675 12.9296 15.1501 12.5312L23.0001 6.15622V16.9374C23.0001 17.0311 22.9751 17.1249 22.95 17.2186L16.925 12.3202C16.725 12.1561 16.3999 12.1796 16.225 12.3671C16.0499 12.5546 16.0751 12.8594 16.2751 13.0234L22.3251 17.9452C22.1749 18.0153 22 18.0623 21.8 18.0623L5.20004 18.0625Z" fill="#7E7E7E"/>
</svg>
