<svg width="39" height="34" viewBox="0 0 39 34" fill="none" xmlns="http://www.w3.org/2000/svg">
<path d="M19.9525 20.6757L18.3021 8.40626C18.252 8.03336 18.0492 7.69632 17.7384 7.46979C17.4278 7.24302 17.0343 7.14514 16.6451 7.19749L8.46789 8.29742C8.07864 8.34978 7.72503 8.54816 7.48538 8.84894C7.24549 9.14956 7.139 9.52821 7.18915 9.90108L8.83954 22.1706C8.8897 22.5435 9.09246 22.8805 9.40326 23.107C9.71389 23.3338 10.1074 23.4317 10.4966 23.3793L18.6738 22.2794C19.063 22.227 19.4166 22.0287 19.6563 21.7279C19.8962 21.4273 20.0027 21.0486 19.9525 20.6757ZM9.76543 22.046L8.11504 9.77654C8.07647 9.48979 8.2877 9.2249 8.58702 9.18464L16.7642 8.08471C16.9079 8.06538 17.0531 8.10149 17.1677 8.18527C17.2825 8.26882 17.3573 8.39323 17.3758 8.53087L19.0262 20.8004C19.0447 20.938 19.0055 21.0777 18.9168 21.1887C18.8284 21.2997 18.6979 21.373 18.5542 21.3923L10.377 22.4922C10.2334 22.5115 10.0881 22.4754 9.97354 22.3916C9.85875 22.3081 9.78393 22.1837 9.76542 22.046L9.76543 22.046Z" fill="#7E7E7E"/>
<path d="M22.2007 25.0368C22.5204 24.993 22.8171 24.8479 23.0453 24.6237C23.2733 24.3998 23.4198 24.1091 23.4626 23.7969L25.1301 11.4774C25.1809 11.102 25.0767 10.7231 24.8411 10.4241C24.6053 10.1251 24.2572 9.93041 23.8728 9.8824L19.292 9.28179C19.0443 9.24936 18.8153 9.4192 18.7804 9.66086C18.7455 9.90271 18.918 10.125 19.1657 10.1574L23.7438 10.7562C23.8915 10.7753 24.0252 10.8499 24.1164 10.9643C24.2121 11.0793 24.2551 11.2277 24.2356 11.3753L22.567 23.6883C22.5483 23.8325 22.4703 23.9633 22.3511 24.051C22.2335 24.1404 22.0845 24.1803 21.9372 24.1623L15.26 23.3454C15.1364 23.3213 15.0079 23.3489 14.9056 23.4215C14.803 23.4939 14.736 23.6046 14.7205 23.7268C14.7049 23.8491 14.7424 23.9718 14.8238 24.0651C14.9053 24.1586 15.0234 24.2142 15.1493 24.2189L21.8193 25.048C21.9464 25.0605 22.0747 25.0565 22.201 25.0368L22.2007 25.0368Z" fill="#7E7E7E"/>
<path d="M29.7889 14.8093L26.1384 13.2445C25.9243 13.1633 25.6879 13.2705 25.6023 13.4875C25.5169 13.7047 25.6126 13.9545 25.8195 14.0541L29.4702 15.621L29.4702 15.6208C29.5952 15.6741 29.6951 15.7765 29.7478 15.9053C29.8004 16.0341 29.8016 16.1789 29.7507 16.3076L25.3502 27.5019C25.3 27.6307 25.202 27.7331 25.0777 27.7864C24.9537 27.8397 24.8139 27.8395 24.689 27.7859L18.7868 25.2569C18.5691 25.1637 18.3216 25.27 18.2335 25.4941C18.1456 25.7181 18.2504 25.9752 18.4681 26.0684L24.3703 28.5973C24.7041 28.7401 25.0777 28.7405 25.4093 28.5982C25.7408 28.4561 26.0028 28.1829 26.1378 27.839L30.5378 16.6559C30.6763 16.3107 30.6751 15.9214 30.5343 15.5747C30.3937 15.2279 30.1253 14.9523 29.789 14.8094L29.7889 14.8093Z" fill="#7E7E7E"/>
</svg>
