<svg width="27" height="27" viewBox="0 0 27 27" fill="none" xmlns="http://www.w3.org/2000/svg">
<path d="M12.6372 0.960813C15.1089 0.960813 17.1129 2.99118 17.1129 5.49547C17.1129 7.99976 15.1089 10.0301 12.6372 10.0301C10.1654 10.0301 8.16142 7.99976 8.16142 5.49547C8.16142 2.99118 10.1654 0.960813 12.6372 0.960813ZM12.6372 11.2503C16.883 11.2503 20.3266 14.7382 20.3266 19.0403L4.94777 19.0405C4.94777 14.7385 8.39066 11.2499 12.6365 11.2499M12.6365 0C9.64606 0 7.21322 2.46486 7.21322 5.49471C7.21322 7.76519 8.57915 9.71838 10.5226 10.5549C6.77901 11.5125 4 14.9535 4 19.0399C4 19.5701 4.42408 20 4.94759 20H20.3251C20.8484 20 21.2727 19.5703 21.2727 19.0399C21.2727 14.9537 18.4936 11.5128 14.7501 10.5549C16.6938 9.71838 18.0598 7.76519 18.0598 5.49471C18.0598 2.46511 15.6269 0.000249003 12.6364 0.000249003L12.6365 0Z" fill="#7E7E7E"/>
</svg>
