<svg width="39" height="22" viewBox="0 0 39 22" fill="none" xmlns="http://www.w3.org/2000/svg">
<path d="M36.3866 13.7175C36.3946 13.7136 36.4028 13.7101 36.4111 13.7071C36.4213 13.701 36.4323 13.6952 36.4436 13.6906C37.0563 13.4307 37.5379 12.849 37.8381 12.0604C38.1455 11.253 38.2624 10.2326 38.1386 9.11579C38.0159 8.00836 37.8301 7.17018 37.3711 6.51109C36.908 5.84584 36.1524 5.33561 34.8853 4.8789L24.4929 1.13378C23.46 0.761495 22.5123 0.605137 21.5649 0.618405C20.6154 0.631678 19.6591 0.816523 18.6124 1.12568L5.49398 5.0029C4.61232 5.2635 3.40353 5.72869 2.38874 6.3936C1.6879 6.85296 1.08253 7.4049 0.753992 8.0436C0.509092 9.37827 0.458465 10.4994 0.609254 11.4249C0.755365 12.3219 1.09327 13.0377 1.62954 13.5906L10.9469 19.8737C12.4571 20.742 14.2313 21.2026 16.0403 21.3393C18.0698 21.4924 20.138 21.2379 21.9244 20.6938L36.3861 13.7172L36.3866 13.7175ZM27.3105 3.8788C27.3069 3.88398 27.3033 3.88916 27.2995 3.89402L24.5355 7.43105L24.8288 7.5369L24.8302 7.53755L30.1331 5.20574C30.4565 5.06363 30.6238 5.03514 30.6249 5.01507C30.6268 4.97299 30.4691 5.01734 30.1488 4.90209L27.3108 3.87943L27.3105 3.8788ZM24.0003 7.88257C23.989 7.87934 23.978 7.87545 23.9673 7.87059L23.0655 7.54558C22.4915 7.33872 21.9654 7.25196 21.4399 7.25908C20.9146 7.26653 20.383 7.36915 19.7999 7.54072L13.3459 10.0166L13.6214 10.1901C14.2264 10.5381 14.9405 10.7226 15.6702 10.7776C16.4919 10.8398 17.3281 10.7372 18.0504 10.5177L24.0245 7.89068L24.0003 7.88194L24.0003 7.88257ZM23.9791 7.23027L26.7549 3.67841L24.3819 2.82316C24.0118 2.68978 23.6525 2.58393 23.3002 2.50396L22.2769 6.70621C22.5818 6.75704 22.893 6.83862 23.2177 6.9558L23.9791 7.23027ZM13.0598 4.47573C13.0532 4.46472 13.0472 4.45307 13.042 4.44142L7.72604 6.02471C7.6457 6.04866 7.58708 6.08719 7.55076 6.13283C7.5282 6.161 7.51499 6.1911 7.51169 6.21927C7.50866 6.24582 7.51389 6.27527 7.52765 6.30408C7.54911 6.3494 7.59011 6.39407 7.65147 6.43293L12.7398 9.63556C12.7681 9.60189 12.8036 9.57535 12.8449 9.55981L15.4992 8.54138L13.0598 4.47573ZM13.5849 4.27955L15.9915 8.29078C16.0014 8.30761 16.0099 8.32477 16.0165 8.3429L19.3537 7.06259L17.5978 3.08402L13.5849 4.27955ZM18.1204 2.92864L19.8672 6.88649C20.4106 6.7379 20.9202 6.65017 21.434 6.64305C21.5374 6.64176 21.6409 6.64338 21.7443 6.64888L22.7781 2.40329C22.331 2.33207 21.8924 2.30196 21.4538 2.30812C20.5042 2.32139 19.5479 2.50623 18.5012 2.81539L18.1204 2.92864ZM23.1364 1.84283C23.1496 1.84413 23.1628 1.84672 23.176 1.8506C23.6174 1.93898 24.0675 2.0649 24.5342 2.23324L30.3011 4.31154C30.8883 4.52325 31.1635 4.73853 31.1489 5.04833C31.1354 5.3358 30.8509 5.54783 30.3163 5.78286L18.2199 11.102C18.2114 11.1059 18.2029 11.1088 18.1943 11.1114C17.4173 11.349 16.5186 11.4607 15.6378 11.394C14.8428 11.3341 14.0589 11.1285 13.3858 10.7401L13.3776 10.7352L7.40511 6.97617C7.24965 6.87841 7.1382 6.74795 7.06969 6.60325C6.99924 6.45498 6.97393 6.29376 6.99209 6.13644C7.00997 5.98073 7.06969 5.83311 7.16874 5.70913C7.2711 5.58125 7.41584 5.47929 7.59883 5.42457L18.3744 2.21514C19.4552 1.89563 20.4494 1.70496 21.448 1.69071C22.0063 1.68295 22.5641 1.73053 23.1367 1.84221L23.1364 1.84283ZM36.9121 11.9608C36.9957 11.9204 37.0915 11.9673 37.1259 12.0657C37.1603 12.1641 37.1204 12.2768 37.0367 12.3172L22.2502 19.4505C22.2422 19.4543 22.2342 19.4573 22.2263 19.4595C20.3945 20.0196 18.2738 20.2821 16.1944 20.1251C14.3285 19.9843 12.4931 19.5052 10.9255 18.6001C10.9222 18.5981 10.9192 18.5962 10.9162 18.5942L10.9159 18.5949L1.57877 12.2984C1.50007 12.2453 1.47283 12.1275 1.51768 12.0349C1.56281 11.9423 1.66297 11.9103 1.74167 11.9631L11.0788 18.2595C12.6027 19.1371 14.392 19.6023 16.215 19.7399C18.2573 19.894 20.3389 19.6372 22.1363 19.0889L36.9121 11.9608ZM36.9858 9.93656C37.0695 9.8961 37.1652 9.94303 37.1996 10.0414C37.234 10.1399 37.1941 10.2525 37.1105 10.293L22.0006 17.5823C21.9926 17.5861 21.9847 17.5891 21.9767 17.5913C20.1449 18.1514 18.0242 18.4139 15.9448 18.2569C14.0789 18.1161 12.2435 17.637 10.6759 16.7319C10.6726 16.7299 10.6696 16.728 10.6666 16.726L10.6663 16.7267L1.32918 10.4302C1.25049 10.3771 1.22325 10.2593 1.2681 10.1667C1.31322 10.0741 1.41339 10.0421 1.49208 10.0948L10.8292 16.3913C12.3531 17.2689 14.1424 17.7341 15.9654 17.8717C18.0077 18.0258 20.0893 17.769 21.8867 17.2206L36.9858 9.93656ZM36.6091 14.2741C36.6017 14.2787 36.594 14.2832 36.586 14.2871L22.1073 21.2717C22.0947 21.2779 22.082 21.2827 22.0691 21.2863C20.2279 21.8489 18.097 22.1128 16.008 21.9548C14.1303 21.813 12.2823 21.3303 10.702 20.4181C10.6968 20.4151 10.6918 20.4119 10.6872 20.4087L10.6866 20.4096L1.3495 14.1132C1.32886 14.0993 1.31043 14.0828 1.29447 14.0637C0.661587 13.4162 0.264251 12.582 0.0944855 11.5403C-0.0719905 10.5189 -0.0175035 9.30077 0.250226 7.86442C0.25738 7.82492 0.270863 7.78899 0.288749 7.75758C0.666551 7.00169 1.35003 6.36846 2.13483 5.85374C3.19836 5.15676 4.45421 4.67246 5.36721 4.40246L18.4857 0.525242C19.5665 0.205725 20.5607 0.0150578 21.5593 0.000811891C22.56 -0.0131083 23.5589 0.151343 24.6455 0.542729L35.0378 4.28785C36.4145 4.7838 37.2482 5.35675 37.7782 6.11819C38.3122 6.88541 38.5236 7.81709 38.6584 9.03458C38.7952 10.2673 38.662 11.4026 38.3166 12.3103C37.9587 13.2511 37.3731 13.95 36.6203 14.2692C36.6167 14.2708 36.6131 14.2721 36.6092 14.2734L36.6091 14.2741ZM37.1072 7.79644C37.2412 7.7317 37.3942 7.8068 37.4492 7.96445C37.5042 8.1221 37.4404 8.30209 37.3064 8.36684L22.1071 15.6992C22.0944 15.7054 22.0818 15.7102 22.0688 15.7138C20.2277 16.2764 18.0968 16.5403 16.0078 16.3823C14.1301 16.2405 12.282 15.7578 10.7018 14.8455C10.6966 14.8426 10.6916 14.8394 10.6869 14.8362L10.6864 14.8371L1.34926 8.54068C1.22323 8.45586 1.17948 8.26713 1.25158 8.11887C1.32367 7.9706 1.4841 7.91913 1.61012 8.00395L10.9472 14.3004C12.4574 15.1687 14.2319 15.6293 16.0408 15.7659C18.0704 15.9191 20.1386 15.6646 21.9249 15.1204L37.1072 7.79644Z" fill="#E4E4E4"/>
</svg>
