<svg width="38" height="34" viewBox="0 0 38 34" fill="none" xmlns="http://www.w3.org/2000/svg">
<path d="M21.1345 14.8188C17.049 14.8188 13.7251 11.4949 13.7251 7.40938C13.7251 3.32389 17.049 0 21.1345 0C25.22 0 28.5439 3.32389 28.5439 7.40938C28.5439 11.4949 25.22 14.8188 21.1345 14.8188ZM21.1345 0.523076C17.3373 0.523076 14.2482 3.61224 14.2482 7.40938C14.2482 11.2065 17.3373 14.2957 21.1345 14.2957C24.9316 14.2957 28.0208 11.2065 28.0208 7.40938C28.0208 3.61224 24.9316 0.523076 21.1345 0.523076Z" fill="#E4E4E4"/>
<path d="M18.7638 29.2923C18.657 29.2923 18.5566 29.2264 18.5181 29.1199C17.039 25.0489 18.8869 21.5274 20.1197 19.7908C21.1855 18.2931 21.5431 16.3599 21.0767 14.6195C21.0392 14.4801 21.1222 14.3365 21.2617 14.2992C21.4016 14.262 21.5444 14.3444 21.5819 14.4842C22.0884 16.3736 21.7012 18.4706 20.546 20.0937C19.3727 21.7469 17.6121 25.0946 19.0095 28.9415C19.059 29.0774 18.9888 29.2273 18.8531 29.2766C18.8235 29.2874 18.7934 29.2927 18.7638 29.2927L18.7638 29.2923Z" fill="#E4E4E4"/>
<path d="M29.8229 34H11.2615C11.117 34 11 33.883 11 33.7384V31.0577C11 30.9131 11.117 30.7961 11.2615 30.7961H29.8229C29.9675 30.7961 30.0844 30.9131 30.0844 31.0577V33.7384C30.0844 33.883 29.9675 34 29.8229 34ZM11.5231 33.4769H29.5614V31.3192H11.5231V33.4769Z" fill="#E4E4E4"/>
<path d="M27.5591 31.319H13.525C13.3804 31.319 13.2634 31.2021 13.2634 31.0575V29.0306C13.2634 28.886 13.3804 28.769 13.525 28.769H27.5591C27.7037 28.769 27.8206 28.886 27.8206 29.0306V31.0575C27.8206 31.2021 27.7037 31.319 27.5591 31.319ZM13.7865 30.796H27.2976V29.2921H13.7865V30.796Z" fill="#E4E4E4"/>
<path d="M25.8755 29.2922H16.3935C16.2762 29.2922 16.1733 29.2143 16.1416 29.1012C16.0778 28.8736 14.6192 23.4848 17.9752 19.7774L18.1272 19.6073C18.2242 19.5 18.3895 19.4923 18.4965 19.5891C18.6035 19.6862 18.6114 19.8517 18.5144 19.9587L18.3629 20.1285C15.5443 23.2425 16.3758 27.787 16.5989 28.7691H25.6697C25.8926 27.7868 26.7242 23.2424 23.9056 20.1279L23.7539 19.9578C23.6571 19.8505 23.6655 19.685 23.7728 19.5882C23.8798 19.4919 24.045 19.4998 24.1421 19.6071L24.2933 19.777C27.6493 23.4845 26.1907 28.8733 26.1269 29.1008C26.0952 29.214 25.9923 29.2918 25.875 29.2918L25.8755 29.2922ZM25.8755 29.0305H25.8781H25.8755Z" fill="#E4E4E4"/>
<path d="M22.5481 29.2922C22.4498 29.2922 22.3558 29.2368 22.3114 29.142C21.8956 28.2596 21.6665 27.2374 21.6302 26.1047C21.5518 23.8234 22.2883 21.5385 23.7046 19.6717L23.721 19.6493C23.7238 19.6449 23.7353 19.6291 23.7384 19.625C27.2627 14.963 27.346 11.5232 27.2875 10.5797C27.2786 10.4356 27.3881 10.3115 27.5324 10.3023C27.677 10.2929 27.8006 10.403 27.8095 10.5473C27.8708 11.5359 27.7884 15.1354 24.1557 19.9404L24.1391 19.9631C24.1363 19.9675 24.1245 19.9833 24.1214 19.9877C22.7777 21.7589 22.0787 23.9253 22.1528 26.0871C22.187 27.1488 22.3995 28.1015 22.7844 28.9193C22.846 29.0498 22.79 29.2056 22.6593 29.2671C22.6232 29.2842 22.5854 29.2921 22.5482 29.2921L22.5481 29.2922Z" fill="#E4E4E4"/>
<path d="M18.3218 20.0442C18.2427 20.0442 18.1642 20.0084 18.1129 19.9403C14.4894 15.1447 14.398 11.537 14.4565 10.5458C14.4649 10.4017 14.5903 10.2909 14.7328 10.3001C14.8771 10.3085 14.987 10.4324 14.9785 10.5764C14.9229 11.5228 15.0145 14.9723 18.5302 19.625C18.6173 19.7405 18.5946 19.9044 18.4791 19.9913C18.4321 20.027 18.3767 20.0441 18.3218 20.0441L18.3218 20.0442Z" fill="#E4E4E4"/>
<path d="M21.1352 4.42602C21.0882 4.42602 21.041 4.41325 20.9993 4.38771L19.142 3.25728C19.0639 3.21003 19.0164 3.12524 19.0164 3.03405V2.09977C19.0164 1.98892 19.0863 1.89008 19.1908 1.85305C20.426 1.41681 21.8374 1.41553 23.0766 1.85305C23.1811 1.89008 23.2511 1.98892 23.2511 2.09977V3.03405C23.2511 3.12523 23.2035 3.21003 23.1256 3.25728L21.2714 4.38771C21.2295 4.41325 21.1825 4.42602 21.1353 4.42602H21.1352ZM19.5394 2.8872L21.1352 3.85829L22.7279 2.8872V2.28826C21.7052 1.96747 20.5595 1.96849 19.5394 2.28826L19.5394 2.8872Z" fill="#E4E4E4"/>
<path d="M16.4001 8.08538C16.373 8.08538 16.3457 8.08104 16.3191 8.07261L15.4336 7.78425C15.3322 7.7513 15.261 7.66012 15.2536 7.55362C15.2505 7.50739 15.2502 7.45784 15.2502 7.40855C15.2502 6.10798 15.6655 4.87515 16.4517 3.84404C16.5191 3.75567 16.6356 3.71991 16.7403 3.75388L17.6284 4.04224C17.7152 4.07059 17.7811 4.14185 17.802 4.23073L18.3039 6.34729C18.3266 6.4423 18.2942 6.54243 18.2199 6.60602L16.5704 8.02199C16.5224 8.06336 16.4616 8.08533 16.4001 8.08533L16.4001 8.08538ZM15.7736 7.34497L16.3414 7.52988L17.7584 6.3136L17.327 4.49486L16.7582 4.30995C16.1255 5.20081 15.7864 6.24494 15.7736 7.34497H15.7736Z" fill="#E4E4E4"/>
<path d="M19.5169 13.0574C19.4919 13.0574 19.4666 13.0538 19.4421 13.0464C18.1702 12.6661 17.0533 11.8534 16.2968 10.7585C16.2337 10.667 16.2352 10.5457 16.3006 10.4558L16.8485 9.70335C16.9021 9.62979 16.9866 9.58791 17.0811 9.59659L19.247 9.77257C19.3446 9.78048 19.4294 9.84204 19.4672 9.9322L20.3064 11.9394C20.3417 12.0235 20.3304 12.12 20.2768 12.1938L19.7287 12.9493C19.6786 13.0186 19.5992 13.0574 19.517 13.0574L19.5169 13.0574ZM16.8347 10.6111C17.4831 11.4833 18.389 12.1425 19.4163 12.4894L19.767 12.0056L19.046 10.2809L17.1851 10.1299L16.8347 10.6111Z" fill="#E4E4E4"/>
<path d="M22.7529 13.0573C22.6707 13.0573 22.5912 13.0182 22.5412 12.9493L21.9933 12.1938C21.9399 12.12 21.9287 12.0239 21.9637 11.9396L22.7999 9.9324C22.8374 9.84224 22.9225 9.78017 23.0201 9.77251L25.1859 9.59653C25.2784 9.58811 25.3652 9.62974 25.4189 9.7038L25.9667 10.4593C26.0318 10.5492 26.0331 10.6703 25.97 10.7617C25.213 11.8546 24.0971 12.6658 22.828 13.0463C22.8032 13.0537 22.7779 13.0573 22.7529 13.0573L22.7529 13.0573ZM22.5029 12.0055L22.8535 12.4893C23.8788 12.1422 24.7837 11.4843 25.4324 10.6135L25.0817 10.1298L23.2213 10.2807L22.5029 12.0055Z" fill="#E4E4E4"/>
<path d="M25.8679 8.08544C25.8061 8.08544 25.7456 8.06348 25.6973 8.02236L24.0506 6.60639C23.9766 6.54279 23.9441 6.44267 23.9669 6.34792L24.4687 4.23136C24.4897 4.14247 24.5556 4.07096 24.6424 4.04287L25.5305 3.75451C25.636 3.72079 25.7517 3.75629 25.8191 3.84466C26.6052 4.87578 27.0205 6.10834 27.0205 7.40917C27.0205 7.45846 27.0203 7.50801 27.0172 7.55424C27.0098 7.66075 26.9383 7.75193 26.8369 7.78488L25.9486 8.07324C25.9223 8.08115 25.8949 8.08549 25.8679 8.08549L25.8679 8.08544ZM26.7562 7.53555H26.7588H26.7562ZM24.5125 6.31344L25.9269 7.52973L26.4973 7.34456C26.4845 6.24479 26.1453 5.20067 25.5126 4.3098L24.9438 4.49446L24.5125 6.31344Z" fill="#E4E4E4"/>
<path d="M21.1339 13.2954C17.8889 13.2954 15.2488 10.6552 15.2488 7.41052C15.2488 4.16555 17.8889 1.52539 21.1339 1.52539C24.3789 1.52514 27.019 4.16503 27.019 7.41026C27.019 10.6552 24.3789 13.2954 21.1339 13.2954ZM21.1339 2.04794C18.1773 2.04794 15.7719 4.45338 15.7719 7.41C15.7719 10.3666 18.1773 12.7718 21.1339 12.7718C24.0905 12.7718 26.496 10.3666 26.496 7.41C26.496 4.45338 24.0905 2.04794 21.1339 2.04794Z" fill="#E4E4E4"/>
<path d="M22.1689 9.2468H20.0996C19.9862 9.2468 19.8858 9.17376 19.8508 9.06598L19.2115 7.09803C19.1766 6.99025 19.2149 6.87225 19.3066 6.80559L20.9805 5.5893C21.0725 5.52264 21.1961 5.52264 21.288 5.5893L22.962 6.80559C23.0537 6.87224 23.092 6.99024 23.057 7.09803L22.4177 9.06598C22.3827 9.17376 22.2824 9.2468 22.169 9.2468H22.1689ZM20.2896 8.72373H21.9789L22.5007 7.11723L21.1343 6.12443L19.7679 7.11723L20.2896 8.72373Z" fill="#E4E4E4"/>
<path d="M21.1353 6.06229C20.9908 6.06229 20.8738 5.94531 20.8738 5.80075V4.16437C20.8738 4.01981 20.9908 3.90283 21.1353 3.90283C21.2799 3.90283 21.3969 4.01981 21.3969 4.16437V5.80075C21.3969 5.94505 21.2799 6.06229 21.1353 6.06229Z" fill="#E4E4E4"/>
<path d="M19.46 7.27859C19.4255 7.27859 19.3903 7.27144 19.3566 7.25714L17.9457 6.64799C17.8131 6.59078 17.7521 6.43702 17.8093 6.30421C17.8663 6.17165 18.02 6.11036 18.1531 6.16782L19.564 6.77697C19.6965 6.83418 19.7576 6.98794 19.7003 7.12075C19.6577 7.21959 19.5614 7.27859 19.46 7.27859V7.27859Z" fill="#E4E4E4"/>
<path d="M19.2262 10.2948C19.1672 10.2948 19.1079 10.2749 19.0589 10.234C18.948 10.1415 18.933 9.97681 19.0254 9.86571L19.8989 8.81779C19.9916 8.70694 20.1559 8.69162 20.2675 8.78433C20.3783 8.87679 20.3934 9.04153 20.3009 9.15263L19.4274 10.2005C19.3756 10.2629 19.3013 10.2948 19.2262 10.2948Z" fill="#E4E4E4"/>
<path d="M23.042 10.2948C22.967 10.2948 22.8926 10.2626 22.8408 10.2006L21.9683 9.15263C21.8758 9.04179 21.8909 8.87679 22.002 8.78433C22.1128 8.69136 22.2776 8.7072 22.3703 8.81805L23.2428 9.86597C23.3353 9.97681 23.3202 10.1418 23.2091 10.2343C23.1603 10.2751 23.1008 10.2948 23.042 10.2948Z" fill="#E4E4E4"/>
<path d="M22.8084 7.27863C22.707 7.27863 22.6108 7.21937 22.5681 7.12053C22.5109 6.98797 22.5719 6.83396 22.7047 6.77675L24.1174 6.1676C24.2492 6.11065 24.4037 6.17143 24.4609 6.30424C24.5181 6.4368 24.4571 6.59081 24.3243 6.64802L22.9116 7.25717C22.8779 7.27173 22.8429 7.27862 22.8084 7.27862V7.27863Z" fill="#E4E4E4"/>
<path d="M4.90403 21.6577C4.86694 21.8859 4.73041 22 4.4942 22C4.24942 22 4.11035 21.865 4.07766 21.5949L4.05958 21.4416L4.02272 21.1494L3.98517 20.8759L3.94669 20.6211C3.9402 20.5803 3.93348 20.5401 3.92699 20.5007L3.88712 20.2742C3.85351 20.093 3.8192 19.9316 3.78373 19.7897C3.67757 19.3639 3.51021 19.0425 3.28165 18.8257C3.05306 18.6088 2.71025 18.4389 2.25314 18.3162C2.22568 18.3086 2.19746 18.3013 2.16865 18.2938L2.15949 18.2914L1.95875 18.241L1.74016 18.1893L1.50371 18.1362L1.37877 18.1093L1.11567 18.0544L0.834725 17.998L0.330782 17.9015C0.110339 17.8512 0 17.7151 0 17.4936C0 17.2564 0.142795 17.117 0.428608 17.0762L0.733197 17.0273C0.78257 17.0191 0.831017 17.011 0.878769 17.0029L1.15647 16.9542L1.41632 16.9057L1.65832 16.8575L1.88248 16.8095C1.95411 16.7935 2.02295 16.7777 2.08878 16.7617L2.27724 16.7142C2.72622 16.5957 3.06303 16.4257 3.28742 16.2047C3.51181 15.9837 3.67708 15.6544 3.78325 15.2163C3.79739 15.1581 3.81129 15.0967 3.8252 15.0322L3.86623 14.8297C3.87295 14.7945 3.87968 14.7583 3.8864 14.7217L3.92627 14.4921C3.93299 14.4524 3.93948 14.4118 3.94597 14.3706L3.98445 14.1138C3.99094 14.0695 3.9972 14.0246 4.00346 13.9786L4.04078 13.6948L4.07717 13.3928C4.10986 13.131 4.24848 13 4.49349 13C4.60777 13 4.70351 13.0348 4.78116 13.1044C4.85882 13.1739 4.9017 13.266 4.90982 13.3806C4.917 13.4318 4.92396 13.4824 4.93114 13.5322L4.97356 13.8219L5.01598 14.0934L5.0584 14.3469L5.10082 14.5823L5.1037 14.5974C5.10988 14.63 5.11593 14.6618 5.12215 14.6931L5.16457 14.9014C5.18589 15.0009 5.20699 15.0936 5.22831 15.1797C5.33425 15.6094 5.49976 15.9347 5.72414 16.1557C5.94875 16.3767 6.28743 16.5465 6.74061 16.6652C6.77074 16.6731 6.80181 16.681 6.83356 16.6891L7.03338 16.7385L7.36764 16.8164L7.61358 16.8707L8.01715 16.9558L8.30946 17.0152L8.62031 17.0764C8.87344 17.1256 9 17.2647 9 17.4938C9 17.6084 8.96338 17.7025 8.88989 17.7763C8.81641 17.8498 8.7267 17.8948 8.62053 17.9113L8.30968 17.9569C8.25961 17.9646 8.21001 17.972 8.16133 17.9797L7.8783 18.0251L7.61381 18.0704L7.36787 18.1153L7.14047 18.1601C7.06769 18.1749 6.99792 18.1898 6.93139 18.2046L6.74085 18.2489C6.28767 18.3593 5.94876 18.5251 5.72438 18.7461C5.49999 18.9672 5.33472 19.3029 5.22855 19.7531C5.21441 19.8131 5.20027 19.876 5.18613 19.9421L5.14371 20.1489L5.10129 20.3739L5.05887 20.6167L5.01645 20.8773L4.97403 21.1559L4.93161 21.4522L4.90403 21.6577Z" fill="#E4E4E4"/>
<path d="M35.7245 4.80984C35.7039 4.93661 35.628 5 35.4968 5C35.3608 5 35.2835 4.92502 35.2654 4.77492L35.2553 4.68976L35.2348 4.52742L35.214 4.37553L35.1926 4.23393C35.189 4.21126 35.1853 4.18897 35.1817 4.16707L35.1595 4.04119C35.1408 3.94057 35.1218 3.8509 35.1021 3.77205C35.0431 3.53552 34.9501 3.35695 34.8231 3.23649C34.6961 3.11603 34.5057 3.02159 34.2517 2.95343C34.2365 2.94924 34.2208 2.94515 34.2048 2.94098L34.1997 2.93965L34.0882 2.91169L33.9668 2.88296L33.8354 2.85346L33.766 2.83851L33.6198 2.80798L33.4637 2.77667L33.1838 2.72307C33.0613 2.69512 33 2.61949 33 2.49645C33 2.36465 33.0793 2.28722 33.2381 2.26455L33.4073 2.23736L33.4882 2.22383L33.6425 2.19678L33.7868 2.16985L33.9213 2.14305L34.0458 2.11638C34.0856 2.1075 34.1239 2.09873 34.1604 2.08984L34.2651 2.06343C34.5146 1.9976 34.7017 1.90314 34.8263 1.78038C34.951 1.65762 35.0428 1.47466 35.1018 1.23129C35.1097 1.19895 35.1174 1.16481 35.1251 1.12899L35.1479 1.01652L35.1591 0.95648L35.1813 0.828931C35.185 0.806899 35.1886 0.784353 35.1922 0.76142L35.2136 0.618798C35.2172 0.594191 35.2207 0.569197 35.2241 0.543688L35.2449 0.385994L35.2651 0.218249C35.2833 0.0727911 35.3603 0 35.4964 0C35.5599 0 35.6131 0.0193233 35.6562 0.0579753C35.6993 0.0966239 35.7232 0.147773 35.7277 0.211419L35.7395 0.295678L35.7631 0.456595L35.7867 0.607462L35.8102 0.74828L35.8338 0.879048L35.8354 0.887465C35.8388 0.905533 35.8422 0.923227 35.8456 0.940632L35.8692 1.05633C35.8811 1.1116 35.8928 1.16313 35.9046 1.21093C35.9635 1.44965 36.0554 1.63041 36.1801 1.75319C36.3049 1.87597 36.493 1.97028 36.7448 2.03625L36.7964 2.04952L36.9074 2.07696L37.0931 2.12025L37.2298 2.15039L37.454 2.19768L37.6164 2.23066L37.7891 2.26467C37.9297 2.29198 38 2.36928 38 2.49658C38 2.56022 37.9797 2.61253 37.9388 2.6535C37.898 2.69434 37.8482 2.71933 37.7892 2.72848L37.6165 2.75386C37.5887 2.75811 37.5611 2.76224 37.5341 2.76649L37.3768 2.79174L37.2299 2.81686L37.0933 2.84186L36.9669 2.86672C36.9265 2.87497 36.8877 2.88321 36.8508 2.89146L36.7449 2.91607C36.4931 2.97739 36.3049 3.06951 36.1802 3.19229C36.0556 3.31508 35.9637 3.50163 35.9048 3.7517C35.8969 3.78507 35.889 3.81999 35.8812 3.8567L35.8576 3.97163L35.8341 4.0966L35.8105 4.23149L35.7869 4.3763L35.7634 4.53104L35.7398 4.69569L35.7245 4.80984Z" fill="#E4E4E4"/>
</svg>
