<svg width="33" height="34" viewBox="0 0 33 34" fill="none" xmlns="http://www.w3.org/2000/svg">
<path d="M15.5237 12.4976H12.3095C12.1214 12.4976 11.9687 12.6581 11.9687 12.8558V23.6413C11.9687 23.8391 12.1214 23.9996 12.3095 23.9996H15.5237C15.7118 23.9996 15.8645 23.8391 15.8645 23.6413V12.8558C15.8642 12.6581 15.7118 12.4976 15.5237 12.4976ZM15.183 23.2836H12.6499V13.214H15.183V23.2836ZM21.4923 13.9063H18.2781C18.09 13.9063 17.9373 14.0668 17.9373 14.2645V23.6418C17.9373 23.8395 18.09 24 18.2781 24H21.4923C21.6804 24 21.8331 23.8395 21.8331 23.6418V14.2645C21.8327 14.0668 21.6801 13.9063 21.4923 13.9063ZM21.1516 23.2836H18.6185V14.6227H21.1516V23.2836ZM27.4605 8.06488H24.2462C24.0581 8.06488 23.9055 8.22536 23.9055 8.42311V23.6418C23.9055 23.8395 24.0581 24 24.2462 24H27.4605C27.6486 24 27.8012 23.8395 27.8012 23.6418V8.42311C27.8009 8.22536 27.6486 8.06488 27.4605 8.06488ZM27.1198 23.2836H24.5867V8.78125H27.1198V23.2836ZM9.55501 16.6815H6.34074C6.15265 16.6815 6 16.842 6 17.0397V23.6413C6 23.8391 6.15265 23.9996 6.34074 23.9996H9.55501C9.74311 23.9996 9.89575 23.8391 9.89575 23.6413V17.0393C9.89575 16.8414 9.74326 16.6815 9.55501 16.6815ZM9.21458 23.2836H6.68149V17.3979H9.21458V23.2836ZM7.94789 15.3283C8.88663 15.3283 9.65033 14.5254 9.65033 13.5385C9.65033 13.2533 9.58614 12.9836 9.47293 12.7442L13.9833 9.05199L19.78 11.0271C19.9023 11.0687 20.0363 11.0347 20.127 10.9386L25.329 5.42297L25.2031 6.1735C25.1704 6.36823 25.2942 6.55406 25.4795 6.5883C25.4995 6.59199 25.5193 6.59384 25.5391 6.59384C25.7012 6.59384 25.845 6.47146 25.8741 6.29772L26.1888 4.42029C26.2086 4.30295 26.1714 4.18293 26.0896 4.10018C26.0079 4.01742 25.8924 3.98317 25.7816 4.00785L23.8222 4.45151C23.6385 4.49314 23.5213 4.68367 23.5609 4.87688C23.6005 5.07009 23.7817 5.19331 23.9655 5.15167L24.8036 4.96199L19.7909 10.2778L14.0215 8.31195C13.9141 8.27535 13.7964 8.29718 13.7073 8.37003L9.05389 12.1794C8.7561 11.9112 8.37003 11.7487 7.94814 11.7487C7.0094 11.7487 6.2457 12.5516 6.2457 13.5385C6.2457 14.5254 7.00948 15.3283 7.94789 15.3283ZM7.94789 12.465C8.51089 12.465 8.96887 12.9466 8.96887 13.5383C8.96887 14.1302 8.51077 14.6117 7.94789 14.6117C7.3849 14.6117 6.92663 14.1301 6.92663 13.5383C6.92695 12.9466 7.38506 12.465 7.94789 12.465Z" fill="#7E7E7E"/>
</svg>
