<svg width="26" height="26" viewBox="0 0 40 40" fill="none" xmlns="http://www.w3.org/2000/svg">
                <path d="M26.9566 1.24395C24.7899 0.440048 22.4465 -3.05176e-05 20.0001 -3.05176e-05C17.5537 -3.05176e-05 15.2102 0.440048 13.0436 1.24395L11.3044 20L13.0436 38.756C15.2102 39.56 17.5537 40 20.0001 40C22.4465 40 24.7899 39.56 26.9566 38.756L28.6957 20L26.9566 1.24395Z" fill="#FFDA44"/>
                <path d="M40.0001 19.9999C40.0001 11.4007 34.5726 4.06978 26.9565 1.244V38.7561C34.5726 35.9301 40.0001 28.5993 40.0001 19.9999Z" fill="#D80027"/>
                <path d="M0 19.9999C0 28.5993 5.4275 35.9301 13.0435 38.756V1.244C5.4275 4.06978 0 11.4007 0 19.9999Z" fill="black"/>
                </svg> 