<svg width="26" height="26" viewBox="0 0 40 40" fill="none" xmlns="http://www.w3.org/2000/svg">
                <path d="M28.6956 1.98453C26.0662 0.713125 23.1164 0 20 0C16.8835 0 13.9337 0.713125 11.3043 1.98453L9.56519 20L11.3043 38.0155C13.9337 39.2869 16.8835 40 20 40C23.1164 40 26.0662 39.2869 28.6956 38.0155L30.4347 20L28.6956 1.98453Z" fill="#D80027"/>
                <path d="M19.9999 13.0435L21.7265 18.3574H27.3146L22.794 21.6421L24.5206 26.9564L19.9999 23.672L15.4792 26.9564L17.2062 21.6421L12.6855 18.3574H18.2733L19.9999 13.0435Z" fill="#FFDA44"/>
                <path d="M11.3044 1.98523C4.61453 5.22007 0 12.0708 0 20C0 27.9292 4.61453 34.7799 11.3044 38.0148V1.98523Z" fill="#496E2D"/>
                <path d="M28.6956 1.98523V38.0148C35.3854 34.7799 39.9999 27.9291 39.9999 20C39.9999 12.0709 35.3854 5.22007 28.6956 1.98523Z" fill="#FFDA44"/>
                </svg>  