<svg width="26" height="26" viewBox="0 0 40 40" fill="none" xmlns="http://www.w3.org/2000/svg">
                <path d="M19.9998 40C31.0455 40 39.9998 31.0457 39.9998 20C39.9998 8.95431 31.0455 0 19.9998 0C8.95406 0 -0.000244141 8.95431 -0.000244141 20C-0.000244141 31.0457 8.95406 40 19.9998 40Z" fill="#F0F0F0"/>
                <path d="M39.9999 20C39.9999 12.0707 35.3855 5.2195 28.6956 1.9845V38.0154C35.3855 34.7804 39.9999 27.9292 39.9999 20Z" fill="#D80027"/>
                <path d="M0 20C0 27.9292 4.61445 34.7804 11.3044 38.0154V1.9845C4.61445 5.2195 0 12.0707 0 20Z" fill="#D80027"/>
                <path d="M23.4782 22.6086L26.9564 20.8695L25.2174 20V18.2608L21.7391 20L23.4782 16.5217H21.7391L19.9999 13.913L18.2608 16.5217H16.5217L18.2608 20L14.7825 18.2608V20L13.0435 20.8695L16.5217 22.6086L15.6521 24.3478H19.1304V26.9565H20.8695V24.3478H24.3478L23.4782 22.6086Z" fill="#D80027"/>
                </svg>  