<svg width="26" height="26" viewBox="0 0 40 40" fill="none" xmlns="http://www.w3.org/2000/svg">
                <path d="M20.0002 40C31.0459 40 40.0002 31.0457 40.0002 20C40.0002 8.9543 31.0459 0 20.0002 0C8.95455 0 0.000244141 8.9543 0.000244141 20C0.000244141 31.0457 8.95455 40 20.0002 40Z" fill="#F0F0F0"/>
                <path d="M38.756 13.0435H1.24398C0.440078 15.2101 0 17.5535 0 19.9999C0 22.4463 0.440078 24.7898 1.24398 26.9564H38.7561C39.56 24.7898 40 22.4463 40 19.9999C40 17.5535 39.56 15.2101 38.756 13.0435Z" fill="#D80027"/>
                <path d="M20.0001 0C13.9383 0 8.50685 2.69719 4.83911 6.95648H35.1611C31.4934 2.69719 26.0619 0 20.0001 0Z" fill="#0052B4"/>
                <path d="M35.1611 33.0435H4.83911C8.50685 37.3028 13.9383 39.9999 20.0001 39.9999C26.0619 39.9999 31.4934 37.3028 35.1611 33.0435Z" fill="#0052B4"/>
                </svg>  