<svg width="26" height="26" viewBox="0 0 40 40" fill="none" xmlns="http://www.w3.org/2000/svg">
                <path d="M40 20C40 17.5536 39.5599 15.2101 38.756 13.0436L20 12.174L1.24398 13.0435C0.440078 15.2101 0 17.5536 0 20C0 22.4464 0.440078 24.79 1.24398 26.9565L20 27.8261L38.756 26.9566C39.5599 24.79 40 22.4464 40 20Z" fill="#F0F0F0"/>
                <path d="M19.9999 40.0001C28.5992 40.0001 35.9301 34.5726 38.7559 26.9565H1.2439C4.06976 34.5726 11.4006 40.0001 19.9999 40.0001Z" fill="#0052B4"/>
                <path d="M1.2439 13.0435H38.756C35.9301 5.4275 28.5992 0 19.9999 0C11.4006 0 4.06976 5.4275 1.2439 13.0435Z" fill="#D80027"/>
                <path d="M25.2173 13.9132H21.739L22.3188 9.56531L24.6375 7.82617L26.9564 9.56531V13.0436L25.2173 13.9132Z" fill="#338AF3"/>
                <path d="M14.7825 13.9132H18.2608L17.681 9.56531L15.3622 7.82617L13.0435 9.56531V13.0436L14.7825 13.9132Z" fill="#338AF3"/>
                <path d="M22.319 13.9131H17.6812V9.56519L20.0001 7.82605L22.319 9.56519V13.9131Z" fill="#0052B4"/>
                <path d="M13.0435 13.0436V22.6087C13.0435 24.8863 14.1436 26.9118 15.8405 28.1815L17.0579 27.8769L18.5942 29.4224C19.0485 29.516 19.5185 29.5653 20 29.5653C20.4789 29.5653 20.9467 29.5166 21.3985 29.424L23.1522 27.9638L24.1594 28.1787C25.8556 26.909 26.9565 24.8857 26.9565 22.6087V13.0436H13.0435Z" fill="#F0F0F0"/>
                <path d="M13.0435 13.0436H15.826V15.8262H13.0435V13.0436Z" fill="#D80027"/>
                <path d="M18.6086 13.0436H21.3912V15.8262H18.6086V13.0436Z" fill="#D80027"/>
                <path d="M24.1738 13.0436H26.9564V15.8262H24.1738V13.0436Z" fill="#D80027"/>
                <path d="M15.8262 15.8262H18.6087V18.6087H15.8262V15.8262Z" fill="#D80027"/>
                <path d="M21.3914 15.8262H24.1739V18.6087H21.3914V15.8262Z" fill="#D80027"/>
                <path d="M13.0435 18.6079H15.826V21.3905H13.0435V18.6079Z" fill="#D80027"/>
                <path d="M15.8262 21.3905H18.6087V24.1731H15.8262V21.3905Z" fill="#D80027"/>
                <path d="M18.6086 18.6079H21.3912V21.3905H18.6086V18.6079Z" fill="#D80027"/>
                <path d="M24.1738 18.6079H26.9564V21.3905H24.1738V18.6079Z" fill="#D80027"/>
                <path d="M21.3914 21.3905H24.1739V24.1731H21.3914V21.3905Z" fill="#D80027"/>
                <path d="M18.6086 24.1731H21.3912V26.9557H18.6086V24.1731Z" fill="#D80027"/>
                <path d="M15.826 24.1733H13.2229C13.4617 25.2077 13.931 26.1542 14.5746 26.9559H15.826V24.1733Z" fill="#D80027"/>
                <path d="M24.1738 26.956H25.4251C26.0688 26.1543 26.538 25.2078 26.7768 24.1735H24.1738V26.956Z" fill="#D80027"/>
                <path d="M15.8262 26.9561V28.1702C16.6355 28.7792 17.5812 29.2158 18.6087 29.4254V26.9561H15.8262Z" fill="#D80027"/>
                <path d="M21.3914 26.9561V29.4254C22.4189 29.216 23.3646 28.7792 24.1739 28.1702V26.9561H21.3914Z" fill="#D80027"/>
                </svg> 