<svg width="26" height="26" viewBox="0 0 40 40" fill="none" xmlns="http://www.w3.org/2000/svg">
                <path d="M20 40C31.0457 40 40 31.0457 40 20C40 8.9543 31.0457 0 20 0C8.9543 0 0 8.9543 0 20C0 31.0457 8.9543 40 20 40Z" fill="#F0F0F0"/>
                <path d="M15.6523 17.3913H39.8307C38.5524 7.57828 30.1615 0 20 0C18.5067 0 17.0522 0.165078 15.6522 0.475391V17.3913H15.6523Z" fill="#D80027"/>
                <path d="M10.4348 17.3912V2.43176C4.94314 5.42817 1.01173 10.9243 0.169312 17.3913H10.4348V17.3912Z" fill="#D80027"/>
                <path d="M10.4347 22.6088H0.169312C1.01173 29.0757 4.94314 34.5719 10.4348 37.5682L10.4347 22.6088Z" fill="#D80027"/>
                <path d="M15.6522 22.6088V39.5247C17.0522 39.835 18.5067 40.0001 20 40.0001C30.1615 40.0001 38.5524 32.4218 39.8307 22.6088H15.6522V22.6088Z" fill="#D80027"/>
                </svg>