<svg width="26" height="26" viewBox="0 0 40 40" fill="none" xmlns="http://www.w3.org/2000/svg">
                <path d="M1.24402 26.9566C4.06988 34.5725 11.4007 40.0001 20 40.0001C28.5993 40.0001 35.9302 34.5725 38.756 26.9566L20 25.2175L1.24402 26.9566Z" fill="#FFDA44"/>
                <path d="M20 4.57764e-05C11.4007 4.57764e-05 4.06988 5.42755 1.24402 13.0436L20 14.7826L38.756 13.0435C35.9302 5.42755 28.5993 4.57764e-05 20 4.57764e-05Z" fill="black"/>
                <path d="M1.24398 13.0435C0.440078 15.2102 0 17.5536 0 20C0 22.4464 0.440078 24.7898 1.24398 26.9565H38.7561C39.56 24.7898 40 22.4464 40 20C40 17.5536 39.56 15.2102 38.756 13.0435H1.24398Z" fill="#D80027"/>
                </svg>