<svg width="26" height="26" viewBox="0 0 40 40" fill="none" xmlns="http://www.w3.org/2000/svg">
                <path d="M20.0002 40.0001C31.0459 40.0001 40.0002 31.0458 40.0002 20.0001C40.0002 8.95437 31.0459 6.10352e-05 20.0002 6.10352e-05C8.95455 6.10352e-05 0.000244141 8.95437 0.000244141 20.0001C0.000244141 31.0458 8.95455 40.0001 20.0002 40.0001Z" fill="#F0F0F0"/>
                <path d="M39.9999 20C39.9999 12.0708 35.3855 5.21956 28.6956 1.98456V38.0154C35.3855 34.7805 39.9999 27.9292 39.9999 20Z" fill="#D80027"/>
                <path d="M6.10352e-05 20C6.10352e-05 27.9292 4.61451 34.7805 11.3044 38.0155V1.98456C4.61451 5.21956 6.10352e-05 12.0708 6.10352e-05 20Z" fill="#6DA544"/>
                <path d="M14.7825 20.0001C14.7825 22.8816 17.1185 25.2175 20 25.2175C22.8814 25.2175 25.2174 22.8816 25.2174 20.0001V18.2609H14.7825V20.0001Z" fill="#6DA544"/>
                <path d="M26.9564 16.5217H21.739C21.739 15.5613 20.9603 14.7826 19.9998 14.7826C19.0394 14.7826 18.2607 15.5613 18.2607 16.5217H13.0433C13.0433 17.4823 13.8799 18.2609 14.8403 18.2609H14.7824C14.7824 19.2214 15.561 20 16.5216 20C16.5216 20.9606 17.3001 21.7392 18.2607 21.7392H21.739C22.6995 21.7392 23.4781 20.9606 23.4781 20C24.4387 20 25.2173 19.2214 25.2173 18.2609H25.1593C26.1198 18.2609 26.9564 17.4823 26.9564 16.5217Z" fill="#FF9811"/>
                </svg>