<svg width="26" height="26" viewBox="0 0 40 40" fill="none" xmlns="http://www.w3.org/2000/svg">
                <path d="M-3.05176e-05 20C-3.05176e-05 28.5992 5.42747 35.9301 13.0433 38.7559L14.7825 19.9999L13.0433 1.24399C5.42747 4.06993 -3.05176e-05 11.4007 -3.05176e-05 20Z" fill="#6DA544"/>
                <path d="M39.9998 20C39.9998 8.95439 31.0454 1.52588e-05 19.9998 1.52588e-05C17.5534 1.52588e-05 15.2099 0.440093 13.0431 1.244V38.756C15.2099 39.56 17.5534 40 19.9998 40C31.0454 40 39.9998 31.0456 39.9998 20Z" fill="#D80027"/>
                <path d="M13.0435 26.9565C16.8854 26.9565 19.9999 23.8419 19.9999 20C19.9999 16.158 16.8854 13.0435 13.0435 13.0435C9.20151 13.0435 6.08698 16.158 6.08698 20C6.08698 23.8419 9.20151 26.9565 13.0435 26.9565Z" fill="#FFDA44"/>
                <path d="M9.13025 16.5217V20.8695C9.13025 23.0306 10.8821 24.7826 13.0433 24.7826C15.2045 24.7826 16.9563 23.0307 16.9563 20.8695V16.5217H9.13025Z" fill="#D80027"/>
                <path d="M13.0435 22.1739C12.3243 22.1739 11.7391 21.5888 11.7391 20.8696V19.1305H14.3478V20.8696C14.3478 21.5888 13.7626 22.1739 13.0435 22.1739Z" fill="#F0F0F0"/>
                </svg>  