<svg width="26" height="26" viewBox="0 0 40 40" fill="none" xmlns="http://www.w3.org/2000/svg">
                <path d="M6.10352e-05 20C6.10352e-05 22.4465 0.440139 24.7899 1.24405 26.9565L20.0001 28.6957L38.7561 26.9565C39.56 24.7899 40.0001 22.4465 40.0001 20C40.0001 17.5536 39.56 15.2102 38.7561 13.0436L20.0001 11.3044L1.24405 13.0436C0.440139 15.2102 6.10352e-05 17.5536 6.10352e-05 20H6.10352e-05Z" fill="#FFDA44"/>
                <path d="M38.7559 13.0436C35.9301 5.42767 28.5992 8.96454e-05 19.9999 8.96454e-05C11.4006 8.96454e-05 4.06976 5.42767 1.2439 13.0436H38.7559Z" fill="#D80027"/>
                <path d="M1.2439 26.9565C4.06976 34.5725 11.4006 40.0001 19.9999 40.0001C28.5992 40.0001 35.9301 34.5725 38.7559 26.9565H1.2439Z" fill="#D80027"/>
                </svg>