<svg width="26" height="26" viewBox="0 0 40 40" fill="none" xmlns="http://www.w3.org/2000/svg">
                <path d="M20 39.9999C31.0457 39.9999 40 31.0456 40 19.9999C40 8.95424 31.0457 -6.10352e-05 20 -6.10352e-05C8.9543 -6.10352e-05 0 8.95424 0 19.9999C0 31.0456 8.9543 39.9999 20 39.9999Z" fill="#F0F0F0"/>
                <path d="M20.0001 14.7825H39.3111C38.8096 12.922 38.0475 11.1688 37.0646 9.56506H20.0001V14.7825Z" fill="#338AF3"/>
                <path d="M7.55031 35.6521H32.4498C34.275 34.1984 35.8403 32.4326 37.0645 30.4347H2.93555C4.15984 32.4325 5.72515 34.1984 7.55031 35.6521Z" fill="#338AF3"/>
                <path d="M20 -0.00012207V4.34769H32.4498C29.0334 1.62675 24.707 -0.00012207 20 -0.00012207Z" fill="#338AF3"/>
                <path d="M20.0001 14.7825H39.3111C38.8097 12.922 38.0475 11.1688 37.0647 9.56506H20.0001V14.7825Z" fill="#338AF3"/>
                <path d="M0 20C0 21.8052 0.240625 23.5538 0.688984 25.2174H39.3111C39.7594 23.5538 40 21.8052 40 20H0Z" fill="#338AF3"/>
                <path d="M17.3914 11.7047L14.9487 12.8537L16.2494 15.2193L13.5971 14.712L13.261 17.3913L11.4136 15.4207L9.56615 17.3913L9.23013 14.712L6.57779 15.2192L7.87841 12.8536L5.43591 11.7047L7.87849 10.5559L6.57779 8.19026L9.23005 8.69761L9.56623 6.01831L11.4136 7.98894L13.2611 6.01831L13.5971 8.69761L16.2495 8.19026L14.9488 10.556L17.3914 11.7047Z" fill="#FFDA44"/>
                </svg> 