<svg width="26" height="26" viewBox="0 0 40 40" fill="none" xmlns="http://www.w3.org/2000/svg">
                <path d="M19.9998 39.9999C31.0455 39.9999 39.9998 31.0456 39.9998 19.9999C39.9998 8.95418 31.0455 -0.00012207 19.9998 -0.00012207C8.95406 -0.00012207 -0.000244141 8.95418 -0.000244141 19.9999C-0.000244141 31.0456 8.95406 39.9999 19.9998 39.9999Z" fill="#F0F0F0"/>
                <path d="M19.1305 20H40C40 18.1948 39.7594 16.446 39.311 14.7825H19.1305V20Z" fill="#D80027"/>
                <path d="M19.1305 9.5652H37.0646C35.8403 7.56739 34.2749 5.80153 32.4497 4.34778H19.1305V9.5652Z" fill="#D80027"/>
                <path d="M20 40C24.7069 40 29.0333 38.3731 32.4497 35.6522H7.55029C10.9667 38.3731 15.293 40 20 40Z" fill="#D80027"/>
                <path d="M2.93545 30.4347H37.0645C38.0474 28.8309 38.8097 27.0778 39.311 25.2173H0.688965C1.19029 27.0778 1.95256 28.8309 2.93545 30.4347Z" fill="#D80027"/>
                <path d="M9.26413 3.12316H11.0867L9.3914 4.3548L10.039 6.34769L8.34374 5.11605L6.64851 6.34769L7.20788 4.62605C5.71522 5.86941 4.40694 7.32613 3.32882 8.94925H3.9128L2.83366 9.73324C2.66554 10.0137 2.50429 10.2986 2.34976 10.5878L2.86507 12.1738L1.90366 11.4753C1.66468 11.9816 1.44608 12.4993 1.2496 13.0278L1.81733 14.7753H3.9128L2.21749 16.007L2.86507 17.9999L1.16983 16.7682L0.154365 17.5061C0.0527246 18.3231 -0.000244141 19.1553 -0.000244141 19.9999H19.9998C19.9998 8.95425 19.9998 7.65207 19.9998 -0.00012207C16.0488 -0.00012207 12.3658 1.14597 9.26413 3.12316ZM10.039 17.9999L8.34374 16.7682L6.64851 17.9999L7.29608 16.007L5.60077 14.7753H7.69624L8.34374 12.7825L8.99124 14.7753H11.0867L9.3914 16.007L10.039 17.9999ZM9.3914 10.1809L10.039 12.1738L8.34374 10.9421L6.64851 12.1738L7.29608 10.1809L5.60077 8.94925H7.69624L8.34374 6.95636L8.99124 8.94925H11.0867L9.3914 10.1809ZM17.2129 17.9999L15.5176 16.7682L13.8224 17.9999L14.47 16.007L12.7747 14.7753H14.8701L15.5176 12.7825L16.1651 14.7753H18.2606L16.5653 16.007L17.2129 17.9999ZM16.5653 10.1809L17.2129 12.1738L15.5176 10.9421L13.8224 12.1738L14.47 10.1809L12.7747 8.94925H14.8701L15.5176 6.95636L16.1651 8.94925H18.2606L16.5653 10.1809ZM16.5653 4.3548L17.2129 6.34769L15.5176 5.11605L13.8224 6.34769L14.47 4.3548L12.7747 3.12316H14.8701L15.5176 1.13027L16.1651 3.12316H18.2606L16.5653 4.3548Z" fill="#0052B4"/>
                </svg>